<?xml version="1.0" encoding="UTF-8"?>
<svg id="Layer_1" xmlns="http://www.w3.org/2000/svg" version="1.1" viewBox="0 0 595.28 841.89">
  <!-- Generator: Adobe Illustrator 29.5.1, SVG Export Plug-In . SVG Version: 2.1.0 Build 141)  -->
  <defs>
    <style>
      .st0 {
        fill: #fefefe;
      }
    </style>
  </defs>
  <path class="st0" d="M169.55,581.61l-2.53.63c-1.29,1.53,4.36,1.85,1.59,2.52l-12.06-6.33-.33,1.23-1.23.04c-.62-2.76-4.76-3.44-4.44-6.96l19,8.88Z"/>
  <g>
    <path class="st0" d="M186.03,487.17c-.69.12-.58.08-.82.77-1.74,4.89-2.79,12.63-3,17.89-.82,20.41.84,41.26,2.12,61.43.14,2.27,2.66,4.03,1.05,6.73-.94.16-1.5-.02-2.25-.59-.4-.31-5.62-7.45-5.9-8.1-4.31-9.83-3.25-42.12-1.9-53.66,6.2-52.88,39.03-91.15,74.22-127.83,27.09-28.23,57.27-57.35,88.23-81.74,18.73-14.75,38.86-28.11,59.08-40.98,8.87-5.65,17.51-11.1,27.01-15.47,7.22-3.32,18.02-3.57,25.39-6.31,3.23-1.2,6.28-4.13,9.85-4.39l-3.8,3.8c2.38.66,5.39-1.13,7.33-1.2.29,0,.2,1.09.69,1.2,6.11,1.32,11.56-.24,16.84,3.02.2.12,4.37,1.16,4.61,1.17,1.69.06,6.48-2.42,8.36-.84,1.13.94,2.85,4.38,4.01,5.83,9.01,11.24,9.97,13.47,7.91,28.23-9.69,69.58-55.39,144.62-108.35,189.49-6.02,5.1-9.4,6.18-14.65,12.84-9.81,12.45-19.99,25.98-27.68,39.9-.8,1.44-7.43,12.08-8.2,12.36-.29.11-1.04-.58-1.12-.45-.37.57.67,2.01.51,2.44-.02.06-.78.15-1.12.58-2.17,2.72-5.08,5.68-7,8.25-11.3,15.02-20.3,27.02-34.07,40.08-19.79,18.78-49.47,42.57-78.39,41.18-12.25-.59-22.49-5.19-32.73-9.33-.27-.11-5.76-.34-4.97,1.4,3.38,4.06,8.47,6.29,11.75,10.44.88,1.12,5.18,8.37,5.27,9.33.08.83-.33.97-.86,1.46l-8.25-6.95c-1.54-.27-1.06,1.14-.62,1.89,2.44,4.24,9.17,6.42,13.58,7.65l.04,2.49c-2.07.57-3.31-1.89-3.79-2.13-2.55-1.24-5.01-1.53-7.74-3.62-4.28-3.27-5.39-8.69-10.83-12.61-.57-.41-.44-2.35-1.72-.97.27,4.45,3.07,9.42,3.65,13.47.13.91.8,2.32-.78,2.05l-2.83-7.98-3.87.12-1.24-5.44c-6.72,3.99.63-6.36-.63-7.6l-1.84.05c-1.98,3.01-2.51,6.68-4.01,10.26-8.68,20.74-15.81,41.84-24.56,62.27-3.04,7.11-3.7,9.68-9.38,14.36-.2.16.71.97-.43,1.59-.33.18-5.38-1.82-5.69-2.31-1.16-6.84,3.9-12.38,6.46-18.26,7.44-17.08,13.16-34.97,20.99-51.9.96-2.47-2.28,1.75-2.46,1.87-.6.42-2.25.27-2.84,1.71-2.75-3.08,3.22-6.54,5.01-8.92,7.95-10.55-5.72.26-7.21-1.86-2.14-3.05,5.45-4.77,7.17-5.78,2.56-1.5,7.74-8.08,8.94-10.73.4-.88.42-1.55.34-2.49.29-.11.87.09,1.27,0,.3-1.66-.37-1.32-1.9-1.26-.26.16.61.93.63,1.26-2.61.98-5.04,2.29-7.51,3.58l-5.8,4.02c-.66-4.25,5.3-4.59,6.97-7.6-1.81-.2-3.54-.85-5.41-.7-.88.07-3.02,3.81-2.77-.51,6.24-1.58,18.52.01,20.09-8.13.31-1.61-1.61-2.57,1.4-3.65l-3.8-.95.59,1.84-4.31,1.22-.73-3.07,2.53-.63-8.86-1.27c-.47,1.8.48.82.92,1.02,1.85.87,4.61,1.06,4.48,3.39-.76-1.01-2.04-.04-2.56-.11-1.05-.13-6.93-3.98-8.75-5.05-1.6-.94-5.36-1.63-5.41-3.48-.05-2.29,3.97-1.28,5.12-.79.71.3.67,1.59,2.2,1.72s3.07-.79,4.64-.51c.69-2.1-2.63-1.43-3.09-1.98-.54-6.8,5.77,1.63,6.93,2.26,1.35.74,9.77,3.06,10.77,2.57l2.48-4.11c-1.84.02-1.97-1.73-1.26-3.17l-1.84.57c-.61-.42-1.38-3.29-1.58-3.58-4.19-6.18-6.95-13.94-9.93-20.64-2.42-5.43-5.88-10.79-6.29-16.91l2.99.82c2.15,5.48,4.21,11.1,6.68,16.44,2.64,5.72,7.75,13.53,9.52,19.08.41,1.3-.28,2.25-.18,2.31.21.14,1.28-.25,1.74.13s.63,3.91,2.71,2.76c1.7-.94,8.01-12.08,9.61-14.49,28.22-42.41,56.3-85.09,89.64-123.32,19.7-22.6,41.31-43.86,63.65-63.7,3.6-3.2,7.55-6.31,11.33-9.27l-.05-1.21-1.25-.43c.85-4.79,3.99-8.71,5.77-13.21,3.05-7.69,5.93-17.4,8.18-24.89.96-3.21.89-8.14,2.58-11.58,1.18-.15.47,1.28.35,1.93-1.49,7.7-4.48,15.12-5.6,22.92-2.01,4.48-2.68,9.41-4.4,13.98-1.38,3.65-3.59,6.95-4.92,10.6,1.14.29,1.27-.45,1.88-.99,6.05-5.36,13.89-9.96,18.79-15.04,1.16-1.21,3.07-2.78,2.78-4.25,2.47,1.14,1.92-.52,3-1.28,1.82-1.27,3.62-1.77,4.6-4.12l-1.22-1.19c1.98-3.86,5.16-6.05,6-10.49,2.82-14.92,3.8-28.93,7.93-44.03,3.54-12.93,8.31-25.57,19.23-33.97,1.08-.95-.48-.48-.94-.34-6.73,2.08-12.38,7.15-18,11.16-1.05,3.67-2.39,7.29-3.77,10.84-.5,1.29-.3.99-.94,2.3-6.55,13.41-13.14,27.59-17.99,42.1-3.74,11.2-5.56,24.74-9.66,35.34-1.08,2.78-1.99,4.47-4.41,6.35-1.17-.81-1.05-1.44-.82-2.7.46-2.56,4.4-9.25,5.59-12.8,2.29-6.86,3.38-14.41,5.4-21.22,3.84-12.96,9.49-27.52,14.21-40.29,2.14-5.79,4.56-11.8,7.62-17.09.13-.42-.56-.46-.94-.31-.8.33-11.35,8.53-11.76,9.15-3.67,5.53-4.85,10.91-9.5,16.98-1.04,1.36-1.03,1.62-2.11,3.1-2.84,3.88-9.01,19.32-10.64,24.24-6.78,20.39-8,43.66-20.8,61.57-1.19.93-.58-2.12-.48-2.39.82-2.28,3.25-5.05,4.39-7.65,8.06-18.41,9.05-39.24,17.48-57.15,2.24-11.56,8.91-22.19,12.82-33.28-.24-.29-5.79,3.3-6.47,3.8s-5.42,4.39-5.61,4.71c-.86,1.44-.39,2.8-.9,4.17-.55,1.5-3.74,9.49-5.08,9.49-3.73-2.79.03-6.66.31-10.13-2.11,1.54-4.58,2.8-6.55,4.54-9.87,8.68-23.26,38.82-27.33,51.88-4.86,15.59-7.11,31.97-11.4,47.54-1.73,6.28-3.86,14.41-9.2,18.36-.47-2.78,2.2-4.19,3.28-6.53.95-2.03,2.05-5.78,2.73-8.05,5.22-17.64,10.31-40.48,13.07-58.54,1.15-7.5,2.87-14.89,2.45-22.58-2.19,1.8-5.15,3.83-7.16,5.69-.59.54-.3,1.44-.86,1.95-3.58,3.31-8.07,5.45-10.37,10.41-.66,1.43-2.75,9.21-3.14,9.53-.47.39-.7.39-1.28.3.52-1.19.78-2.5.98-3.78.1-.67.85-2.06-.33-1.92-.97,2.29-.72,5.78-3.17,6.97v-6.33c.08.77-.2,1.05-.8,1.45-2.98,1.97-5.78,3.65-7.68,6.85l-6.74,32.25c-1.13-.27-1.24-1.12-1.23-2.12.04-2.86,1.6-7.09,1.99-10.17.52-4.11.44-8.32,1.14-12.43-1.03.54-2.13,1.64-2.81,2.57-2.34,3.23-6.69,15.42-6.69,19.29v42.15l5.08-33.78,1.89-.44c.23.17-1.58,4.69-1.71,5.47-2.34,14.04-1.81,32.5-5.92,46.09-.7,2.31-4.56,8.66-4.88,3.74-.16-2.48,1.41-4.21,1.7-6.22,2.07-13.95,2.17-31.46,1.94-45.64-.08-4.87-1.35-11.09-1.22-15.74.11-4.02,3.74-8.42,3.43-12.42-6.56,8.08-14.67,12.32-18.81,22.38-3.04,7.38-3.32,15.91-5.6,22.8-.19.57-.78.52-1.25.45l1.29.95c-1.84,2.53-.88,5-1.3,7.5-.1.57-2-.02-.63,2.31-1.73.26-1.25-.28-1.24-1.58.06-8.27,3.66-18.72,4.33-27.33.12-1.56.12-3.11.07-4.67-1.09,1.25-3.28,2.92-4.22,4.02-.76.9-2.18,3.67-3,4.6-4.51,5.1-10.05,9.56-13.65,15.33.05,4.68-1.84,8.8-2.48,13.21-2.45,16.95-1.01,33.69-.37,50.61.04.99,1.23,2.88.28,4.75-1.46-.52-1.48-2.92-1.63-4.24-.87-7.62-1.31-16.47-1.78-24.2-.36-5.87-.2-11.9-.39-17.83l-1.91.36c-2.14-1.39,2.67-12.43,3.36-15.08.16-.61,1.07-1.89-.17-1.75l-12.94,15.89c-4.94,7.42-8.85,12.43-11.55,20.71-.34,1.05-1.96,5.38-2.44,5.9-1.02,1.1-2.62-1.03-4.05,1.62-.56,1.04-.43,2.27-.77,2.9-3.53,6.54-7.24,14.53-8.8,22.06.76-.13,1.73.07,2.54,0,.47,5.84-1.29,11.59-1.68,17.35-.5,7.38.46,22.25,2.27,28.06l.04,12.27c-2.13-.49-.57-2.62-.79-3.06-.05-.11-1-.04-1.12-.53-.23-.98.84-3.52.02-4.9l1.26-1.01c-2.95-.13-1.32-4.91-1.58-6.71-2.19-15.11-4.18-25.96-.95-41.47ZM452.79,259.96c-.62,4.51.46,10.23,0,14.89,1.65-.02.5-3.06.63-3.17h1.9s-1.26,6.96-1.26,6.96c1.19,1.04,3.38-1.92,3.65-3,1.69-6.95.72-16.66,2.84-24.41.1-.38,4.22-7.82,1.1-5.24-.92.76-4.37,6.07-4.73,7.31l-1.64,17.05-1.84.37,1.25-14.26c-.71.03-1.85,3.19-1.89,3.48ZM472.34,246.44c-1.82-1.14-2.46,2.39-4.34,2.43.02,1.45,2.8-1,3.16.96.31,1.65-3.01,4.55-2.53,6.63l.78-1.72c3.21-2.33,4.54-5.68,8.74-6.85l-.65-1.56c.08,1.85-2.17,1.77-3.51,2.34l-1.66-2.23ZM461.65,270.41c2.09-2.83.86-4.73,1.32-7.21.71-3.8,1.81-7.55,3.12-11.17-2.86,3.64-6.31,12.93-5.7,17.44.12.87.33,1.86,1.26.94ZM441.38,252.67c-.79-.73-5.95,3.57-6.68,4.4-5.07,5.69-8.23,36.06-9.96,45.18-.88,4.63-2.07,9.35-3.63,13.79l8.01-7.19c3.03-3.31,1.12-3.13,1.62-6.25.82-5.08,2.74-11.65,3.85-17.12,2.21-10.94,4.24-21.95,6.8-32.81ZM445.48,256.79c-.41-.53-.07-1.14-.91-.95-1.28,3.37-2.23,6.82-3.23,10.29-1.33,4.63-3.12,11.28-4.2,16.82-1.32,6.77-1.79,13.69-3.35,20.41,2.34-1.05,1.97-3.76,2.85-5.7,6.19-13.64,6.37-19.42,8.59-33.87.41-2.65,2.84-3.64.25-7.01ZM412.95,306.46c3.38-16.73,5.96-33.78,11.32-49.99-3.1,2.6-4.86,6.7-6.34,10.44-3.9,9.86-6.32,21.34-9.1,30.75-3.14,10.64-6.2,21.17-8.76,31.88-.51,2.12-3.32,5.12-3.67,7.74.8.76,2.69-1.09,3.29-1.6,3.49-2.96,7.14-5.82,9.97-9.34,1.67-5.26,1.29-13.96,3.23-18.72.22-.53.76-.54,1.24-.47l-1.18-.7ZM466.09,262.8l1.9-6.33-2.26,3.09.35,3.24ZM429.35,259.01c-1.83-.39-1,.61-1.45,1.37-7.28,12.2-8.26,23.58-11.7,37.12l-3.95,24.25,4.02-4.86c.62-.33,1.48-.29,1.97-.85,1.88-2.16,5.01-20.31,5.66-24.41,1.73-10.81,1.71-22.15,5.46-32.62ZM450.26,263.44c-1.64-.13-1.06-.11-1.25.95-1.86,10.43-3.31,21.06-6.99,31.05,1.84.22,4.77-4.76,5.25-6.21.58-1.75.05-3.75.77-6.16.37-1.24,2.23-4.25,2.23-4.74v-14.89ZM495.76,272.23c.14-.28-.6-1.22-.43-1.99.3-1.38,4.66-4.13,1.49-6.78-1.52.71-3.92,6.54-4.26,6.82-.31.25-4.06,1.29-5.55,2.39-6.08,4.46-11.49,8.99-18.54,12.36-4.96,5.31-13.39,9.93-18.18,14.91-.95.99-1.47,2.03-1.31,3.44,1.09,1.09,4.77-2.69,5.57-3.11,8.24-4.42,17.73-7.72,25.94-11.91,2.04-1.04,2.21-2.52,5.96-3.58.42-.12,2.37-1.06,1.5.23-1.89.66-3.25,2.76-4.66,3.62-3.22,1.96-8.51,3.18-11.15,5.19l-1.62-.57.32,1.29-1.95,1.27-2.18-.65.62,1.22c-1.37.01-2.19,1.13-3.21,1.62-1.27.61-5,1.13-6.46,2.23-.76.57-.25,1.5-.84,1.96-1,.77-5,1.52-6.52,2.24-6.04,2.87-13.29,6.34-15.91,12.92,2.76-.1,3.12-2.97,3.79-3.47,4.9-3.67,23.68-10.5,30.8-14.19,11.33-5.87,18.38-8.74,25.63-19.89.29-.44,1-.55,1.23-.95l2.55-6.49c-1.4-1.35-3.71,5.47-5.71,4.11-.2-1.72,2.94-3.96,3.06-4.2ZM396.39,333.16l20.91-69.08c-12.1,10.4-16.3,29.72-19.34,44.97-1.18,5.92-3.55,17.52-2.83,23.17.11.87.44,1.96,1.26.94ZM490.17,264.71l-5.11,2.26c-2.62,4.96-9.82,8.64-14.35,12.17-.77.6-1.72.73-1.44,2.04,7.24-2.45,14.78-8.36,19.64-14.26.59-.71,1.54-1.02,1.26-2.22ZM467.99,283.09v-1.26h-.62v1.26h.62ZM339.37,399.71c-8.51,4.1-12.93,11.65-20.31,17.41l-15.8,16.51c-.83,1.92,3.02-.02,3.66-.15,4.15-.83,8.39-1.05,12.51-2.07l.3,1.25c-.67.69-8.67,2.29-10.27,3.2-4.79,2.7-6.72,3.97-12.12,6.42-1.39.63-8.91,7.85-9.27,9.11l.93.93,4.06-1.37.07-1.79c1.38-.26,1.68.8,1.91,1.9l.94.02c.5-.1.13-1.14.73-1.28,2.14-.52,8.23-1.14,10.65-1.29.69-.04,2.99-.44,2.87.65-1.5-.08-2.5.32-2.54,1.9h-1.25s-.63-1.26-.63-1.26c.07.69-.12,1.16-.78,1.46-2.46,1.11-6.99,1.74-9.87,2.78s-5.76,3.03-8.82,3.9l-1.47-1.8h-.92c-3.78,3.55-7.39,7.01-9.2,12.02l6.84-5.01c4.53-2.03,9.09-1.75,13.91-2.43,31.65-4.44,64.96-6.12,95.32-12.4,10.06-2.08,16.17-6.13,25.41-9.9l2.35-3.2c-1.66-.02-3.62.18-5.2.69-2.05.66-5.05,2.45-7.98,2.97-.42.08-5.5.39-3.93-1.13,1.09-.27,3.06-.25,3.94-.67.73-.34.71-1.36,1.57-1.73,3.78-1.61,15.75-4.13,17.73-6.69.41-.54.42-1.63.84-2.32-3.96,1.46-8.12,3.86-12.38,4.42-1.35.18-1.26-1.19-.84-1.81.61-.88,11.87-4.14,13.98-5.21,1.08-.55,5.32-3.6,6.44-4.49.31-.25,2.91-2.55,2.3-3.06l-23.19,5.64-2.15-.56,3.79-1.27-7.57,1.29-.02,2.51c-1.3-.21-3.66.87-3.17-1.27,2.92.41,1.27-.85,1.61-1.29.77-.99,13.61-3.38,16.13-4.1,1.97-.56,12.48-3.93,13.3-4.77,1.54-1.57-2.32-.87-1.9-1.89,1.27-.15,2.79.25,3.99-.02.33-.07,3.77-2.98,5.96-2.71l9.05-13.12c-2.55.75-3.76,2.42-6.55,3.27-4.18,1.27-8.67,1.62-12.67,2.4-.48.09-.39,1.29-.78,1.31-.18.01-3.56-.52-3.44-1.27l5.07-1.28-.64-1.26c2.12-.22,14.3-6.06,14.85-6.96.22-.35-.33-1.24-.28-1.28.1-.07,1.61.34,2.41.2,7.65-1.25,8.04-5.69,11.53-11.61l-23.06,3.76-.39,1.94c-2.61-1.62-4.75.45-7.29,1.25l1.59-1.88-2.53-1.27c11.17-3.13,26.83-5.33,35.9-12.91,1.77-1.48,9.33-13.85,8.44-14.99-2.98,1.96-6.21,4.7-9.63,5.89-2.08.72-10.92,2.82-12.93,2.92-.65.03-3.37-.18-3.41-1.19l8.56-3.17.93,1.26c.16-1.92,3.8-2.39,5.28-3.31.86-.53.99-1.42,1.54-1.77,4.33-2.79,8.85-5.39,13.17-8.21.62-.79.58-1.5-.61-1.25-1,.21-7.33,3.93-6-.29.08-.24,3.19-3.22,3.6-3.55,4.27-3.43,9.58-3.74,9.33-10.76-1.66.97-3.75,2.46-5.72,2.58-3.45.21-7.64-.56-10.77.07-.41.08-.27.95-.62,1.05-.75.22-2.49-1.42-2.23.73l-1.58-1.26c-.5,1.71-1.39,1.41-3.08,1.28l-1.03-1.28-.34,1.91-1.28-.57-2.2,1.19.32-1.27-.93.03-.14,1.06-1.03-.28-.13,1.08-2.2-1.27.32,1.27c-1.11.21-2.09-.63-1.9-1.89,8.74-1.74,18.13-2.96,26.45-6.16.8-.31.74-1.25,1.58-1.63,3.79-1.74,7.21-.93,9.89-5.3.91-1.48,1.41-3.55,1.35-5.29-5.99,3.08-12.43,5.78-19.01,7.28-.89.2-1.71-.18-2.54-.01-2.03.41-5.01,2.91-5.05-.29,1.87-.31,3.37-1.51,5.08-2.21,7.62-3.13,19.13-7.28,24.72-13.94,1.24-1.48,3.06-6.04,2.2-7.94-1.97,1.56-2.78,3.52-4.75,5.39-1.81,1.72-4.83,3.83-7.06,4.98-4.54,2.34-9.98,2.47-13.55,6.73l-.94-1.26c-.5,3.39-2.85,1.61-4.01,1.86-.24.05-2.68,2.18-3.46,2.53-1.57.7-3.46.87-4.9,1.96l-.95-1.27c3.26-1.67,7.91-2.91,10.98-4.57,4.51-2.44,18.85-10.8,21.6-14.5.63-.84.5-2.09,1.2-2.93,2.34-2.84,5.35-5.58,8.07-8.1l.59-3.5-.78,1.72c-3.83,3.2-7.96,5.85-12.32,8.3-12.54,7.07-26.96,10.96-39.96,17.05-2.79,1.31-6.57,4.26-10.09,5.84-1.62.72-3.34-.2-4.64,2.27,2.22,1.66,5.24-1.13,7.53-1.89.45-.15,2.95-.05,3.71-.54.3-.19.72-1.39,1.75-1.68l.95,1.89-19.21,7.13-4.87,4.92c4.26-1.41,8.76-1.66,13.05-3.07.91-.3.97-1.17,1.38-1.31,3.46-1.15,8-2.92,11.26-3.83,1.44-.4.88,1.07.92,1.88l-1.12-.45c-2.78,1.61-8.26,4.85-11.42,5.96-10.7,3.76-21.29,2.64-28.96,12.86-.93,1.07,1.44.66,1.85.58,1.45-.26,2.73-1,4.18-1.22-1.03-1.89-.66-2.59,1.04-3.7,1.25-.82,8.45-2.46,10.11-2.58.66-.05,2.81.16,2.78,1.21l-8.87,1.28c.1.9.74.94,1.44,1.08,7.4,1.49,20.35-3.91,28.02-4.9l1.59,2.54-2.22-1.27h-.94s0,1.9,0,1.9l-1.02-1.27-5.58.6-.37,1.94-.94-1.28c-2.69.45-2.01,2.93-6.02,1.29l1.26,1.26-2.84-.64.31,1.91-2.53-1.89.63,2.53-2.53-1.9-.34,1.91-1.28-.57c-4.56,1.82-13.23,4.93-19.76,6.76-1.44.4-3.12-.08-4.66.41s-1.54,2.28-3.11,2.28c-.92,1.64,6.54,1.28,7.27,1.25,4.73-.25,30.69-6,32.01-5.05.05.38-.34.76-.63.95-1.14.77-9.85,1.44-12.05,1.9-6.98,1.46-14.62,4.46-21.16,5.5-1.96.31-4.1.32-6.09.51l.64-1.26c-3.26-2.22-11.55,5.92-13.99,7.85-3.06,2.41-5.76,4.89-8.7,7.32-3.81,3.16-8,6.24-12.16,8.92l.32,1.27c2.16-.42,5.36-2.45,7.49-1.92.48.12.4,1.28.78,1.3,6.11.32,20.95-2.8,27.65-4,5.35-.96,12.62-2.27,16.81-3.58,1.27-.4,8.84-2.66,9.32-2.61.17.02,1.31,3.31.98-.59l3.8,1.25c-1.45.25-2.73.96-4.18,1.24-.7.14-1.48-.52-1.87-.52-.15,0-1.71,1.66-1.86,1.67-.97.1-3.77-.71-4.13-.49l.64,1.26c-1.55-.08-2.85.81-4.29,1.14-10.04,2.32-23.15,3.61-33.89,6.52-.25.07-3.19,3.46-3.66-.04h-.61c-.34,2.35-5.31,1.47-7.83,1.96-2.92.56-5.44,2.03-8.63,2.16-.85.03-1.39-.83-1.61-.8-.83.09-1.22,1.66-1.81,2.16-4.11,3.55-10.76,6.9-12.45,12.26,7.08-3.41,10-5.39,18.24-6.79,4.34-.74,8.77-.85,13.11-1.49,11.29,1.46,22.64-1.74,33.92-2.5v1.9s-1.83-.52-1.83-.52l-.08,1.15h-1.25s-.33-1.27-.33-1.27l-.94.02c-.41,2.99-3.24,2.17-5.07.63v1.91c-.23.24-5.57-.81-6.61-.64s-5.28,1.2-5.12,1.92l-1.59-.02-.31-1.27-.33,1.26h-1.25s-.32-1.26-.32-1.26l-.32,1.27h-1.26s0-1.26,0-1.26l-1.59,1.9-2.55-1.31-1.28,1.34-1.85-.67.31,1.27-4.12-.65-.33,1.92c-1.28-.07.07-1.85-1.89-1.26l-.32,1.27-.32-1.27h-1.25c.24,1.94-2.17,1.13-3.72,1.68-1.13.4-1.64,1.14-2.33,1.48-1.75.85.51-1.91-1.24-1.25-5.07,1.91-7.32,1.7-11.74,2.83-2.6.67-6.07,4.88-4.43-.31ZM326.07,331.26l10.13-20.91c-6.32,4.7-7.96,13.67-10.13,20.91ZM394.6,334.54c-.11.15-.94,2.77-1.21,3.53-.34.95-1.39.93.16,2.04,2.11-1.41,1.71-4.04,2.84-6.02-.31-.25-1.73.37-1.79.44ZM217.71,604.42h14.57c.94,3.23-4.71,2.06-5.38,4.44,13.12-1.49,25.27-4.15,37.96-7.72,3.64-1.02,2.93-.85,6.23-2.6,3.84-2.04,8.74-3.75,11.24-7.42l-20.02,3.13-1.52-1.87c2.09.89,5.31.05,7.66-.39,6.08-1.15,12.2-2.83,18.16-4.52l13.46-10.6,13.93-14.9-16.78,5.07.31-1.27c-1.76.57-3.53.72-4.44-1.27,3.98-.89,8.53-2.79,12.24-4.59.78-.38.9-1.39,1.57-1.73,2-1,9.89-4.89,11.53-3.82l.31,1.89c4.21-3.9,7.73-8.29,10.46-13.3-.22-.18-4.79,1.38-5.54,1.72-3.88,1.73-8.37,3.61-12.04,4.56-5.06,1.31-10.34,1.4-15.05,3.84l.38-2.47,1.09.39c.14-1.79,1.06-.31,2.16-.58,9.68-2.37,16.63-8.2,26.49-11.57,2.15-.73,6.17-.81,6.96-1.28.88-.53,10.55-14.37,12.03-16.52.36-.52,2.77-4.5,2.55-4.71-2.34.21-3.15,2.42-5.12,3.4-4.22,2.09-9,2.7-13.39,4.27-.45.16-.4.93-.82,1.05-.96.27-3.8-.57-4.98-.52l-.41,1.3-1.26-1.25c.99-.33,2.42-.33,3.29-.71,10.32-4.54,23.34-13.25,30.92-21.8,3.92-4.42,7.86-8.77,10.77-13.94-2.04-.2-4.52,1.1-6.41,1.85-3.24,1.3-6.64,2.58-10.43,3.52l-6.6-.61c2.57.47,4.07-2.14,4.92-2.53,2.94-1.33,6.9-2.2,10.15-3.63,6.39-2.81,16.1-5.69,18.7-11.99l8.67-8.16c-10.12,1.06-20.09,5.44-30.15,6.61-1.25.15-.91-.12-.89-1.21,1.36.23,1.72-.11,2.2-1.28l1.92,1.26.95-1.25-1.9-.63c6.45-1.79,13.93-3.11,20.13-5.52.69-.27.63-1.1,1.28-1.4,1.09-.5,3.29-.62,4.56-1.33-.9-1.66-4.01.42-5.45.61-1.61.21-3-.41-4.53-.16l-1.11,2.1-.32-1.91-1.26.31.62,1.59h-2.53s.78-2.39.78-2.39c6.28-1.89,13.48-3.63,19.48-6.17.83-.35,6.8-2.83,5.71-4.11-30.82,5.76-62.86,4.92-93.49,11.35-5.15,1.08-11.67,2.94-17.28,4.28-3.69.88-7.11,2.8-10.89,2.74l-.31-1.26c-2.26,2.77-4.71,5.47-6.92,8.29-5.34,6.8-11.02,16.04-16.25,21.79-1.49,1.64-3.09,3.29-4.38,5.11-.18,1.31.08.8.94.94,3.42.54,2.59-1.08,3.61-1.48,1.86-.72,3.93,0,5.56-1.69l1.28,1.88-2.53,2.54,9.41-1.17.73,1.8-1.57-1.27c-2.11,2.6-2.5,1.09-4.29,1.41s-3.59,1.3-5.54,1.14l1.27.94-1.27.94c2.79.45,5.35-.73,8.02-1.03,2.86-.33,2.7-.61,3.82-.86.69-.15,3.71.64,3.9.47l.11-1.09,1.26,1.25c-9.65,1.52-19,4.6-28.49,6.7-2.48.55-2.93-1.21-5.52,2.38-7.17,9.95-13.52,21.33-20.51,31.79-4.98,7.46-10.37,14.62-15.2,22.19,1.23,3.29,3.56-.46,4.24-.81,5.47-2.76,13.71-4.17,19.83-5.57,1.51-.34,2.28,1.32,2.87-.92l1.58,1.28c-2.09.65-5.22.72-7.12,1.32-5.29,1.68-11.25,5.3-15.84,7.75-3.2,1.7-7.38,2.69-10,5.18-1.4,1.32-6.09,8.27-5.73,10.09,1.04.45,4.86,2.68,5.45,2.71.77.04,1.73-1.23,2.69-1.51,1.19-.35,3.31-.09,4.21-.75.56-.41.2-1.47.5-1.79,1.45-1.51,5.01-1.31,7.86-5.24,2.21-3.03,4.51-.82,5.67-1.82l.91-3.26h3.8c.27,4.91-2.5,4.39-5.3,6.43-.79.57-1.07,1.59-1.74,2.06-1.57,1.11-6.35,2.39-5.94,4.83,14.14-4.96,29.51-3.7,44.26-5.06l.41-1.28,1.25,1.26c-.06-.45-.12-1.11.43-1.26,2.33-.65,7.06-.49,9.78-1.03,9.1-1.8,18.07-5.31,27.18-6.26-6.71,4.34-14.71,5.48-22.32,7.34-18.23,4.48-38.97,2.99-57.23,8.79-.88.28-3.18.97-3.45,1.93l4.43.63c-3.42,1.02-8.21.12-11.44,1.57-1.25.56-1.21,1.32-1.7,1.6-1.38.79-4.78,1.35-4.6,3.18,6.42-.14,13.09-1.92,19.33-2.52,4.75-.46,11.82,1.18,15.32-1.89l12.23-1.28c.46,2.85-4.38,3.28-6.74,3.73-4.64.88-9.63.79-14.31,1.52-1.32.2-3.74.28-4.3,1.72ZM191.1,591.12c-1.72-1.59-8.64,10.7-8.23,12.67.8-.92,3.9-1.64,4.3-2.01.12-.11-.34-.88-.12-1.17.37-.5,1.54-.48,1.59-1.03.06-.67-1.17-2.5.74-3.22,1.22-.46,3.4.47,4.9-.18.74-.7-2.88-3.8-3.81-3.17l.64-1.89ZM265.23,603.8l-22.14,5.43c-3.03-1.85-1.41.06-2.34.29-1.31.33-2.33-.55-3.13-.59-.23-.01-1.47,3.33-3.12-.06-.87.92-.52,1.74-1.91,1.96-2.83.43-2.07-1.16-2.24-1.29-1.25-1-1.15,1.09-1.67,1.23-3.56.96-8.2.06-11.76,1.32-2.57.91-4.45,1.67-7.78,1.91-1.53.11-3.96-1.78-3.48.57,10.18,3.33,20.35,5.07,31.05,3.17l-.64-1.26c1.55-.04,3.13.13,4.68-.08,1.65-.22,8.11-1.55,9.27-2.15.87-.45.95-1.66,1.74-2.23,4.08-2.9,11.08-3.13,13.47-8.22Z"/>
    <path class="st0" d="M200.6,465.62l.84,19.77c2.24,14.36,3.66,27.04,6.33,41.2.38,2.04,4.27,11.27,0,11.14l-1.78-1.14c-.78-4.05-.1-8.74-.48-12.84-1.52-16.27-7.69-35.91-8.09-51.51-.06-2.25.03-7.29,3.18-6.63Z"/>
    <path class="st0" d="M357.74,305.91c-1.96,5.8-3.11,11.84-4.75,17.74-5.14,18.43-12.58,48.3-20.9,64.66-.45.88-4.25,7.39-5.4,6.32,4.09-6.55,6.97-13.89,9.51-21.22,7.12-20.47,12.2-42.25,18.83-62.92.18-.57,1.45-5.93,2.7-4.58Z"/>
    <path class="st0" d="M238.78,451.59l1.1.09c-2.07,1.94.02,2.13.05,4.08.02,1.17-.79,2.4-.7,3.81.18,3.11,2.15,7.63.02,10.18,2.83,1.23.06,2.89.07,3.11.13,3.53,1.47,7.95,1.21,11.77,1.72-.7-.17-3.07,1.88-3.59l1.28-12.25c2.17-.8,1.29,4.65,1.09,4.93-.1.14-3.29.9.16,1.41.33,1.58-.25,1.03-1.2,1.52,1.08,5.17.36,13.47-6.38,13.68,2.35-16.52.51-33.1-.05-49.64l1.93-.75-.46,11.65Z"/>
    <path class="st0" d="M238.62,439.01c-1.53.09-1.1.19-1.26-.95-.88-6.55.71-21.64,2.06-28.36.85-4.25,2.36-6.45,5.53-9.35-1.05,7.45-3.68,14.56-4.98,21.95-.98,5.58-.95,11.09-1.36,16.71Z"/>
    <path class="st0" d="M217.07,435.83c-.19,6.89-1.4,13.7-1.29,20.62.09,5.11,2.39,13.3,1.92,17.73-.1.98-.03,1.94-1.25,2.21.04-.92.34-1.61.19-2.56-1.34-8.89-3.78-18.51-3.65-27.55.05-3.11-.01-10.58,4.08-10.46Z"/>
    <path class="st0" d="M228.86,510.39c-.2.33-1.63,2.04-2.26,1.5-2.21-1.88.76-9.08,1.17-11.81.82-5.45-.24-10.63.04-15.75.06-1.16-.15-2.08.99-2.85,1.33.84.8,1.65.86,2.76.34,6.27,2.04,21.47-.8,26.14Z"/>
    <path class="st0" d="M215.81,515.7c2.11.42,1.5-2,1.57-3.16l1.6.62c-1.07,4.19,1.09,9.47-2.86,12.67-.97.21-1.42-.75-1.57-1.59-.74-4.14.83-9.58-.66-13.93.1-1.9.75-.92.98,0,.4,1.69.73,3.63.95,5.38Z"/>
    <path class="st0" d="M387.52,316.69l-6.01,26.62-3.48,6.96c3.75-10.41,5.27-21.43,8.23-32.03.28-1.01-.69-1.88,1.27-1.55Z"/>
    <path class="st0" d="M201.23,529.64c0,1.39-.21,6.79.04,7.82.12.5,1.18.36,1.58,1.62.68,2.12.74,4.87.27,7.04l-1.86-.02c-.83-.53-1.9-14.6-1.47-15.65.38-.94.18-.97,1.44-.81Z"/>
    <path class="st0" d="M206.93,453.58c.36,4.04,1.02,8.34,1.27,12.37.1,1.71.71,4.65-.31,6.01-1.41-5.09-2.89-12.15-2.22-17.44.11-.87.44-1.96,1.26-.94Z"/>
    <path class="st0" d="M189.04,559.32c-.17.2-.78.12-1.1.12v.61c3.09.23.98,5.16.69,7.25l-2.6.37c-.41-.39.71-9.66,2.53-10.47.12-.27-2.53-.43-1.27-1.57,1.14-1.03,2.78,2.47,1.74,3.69Z"/>
    <path class="st0" d="M248.76,426.96c-1.81,6.39-.88,13.38-1.91,19.96-.17,1.09.34,1.07-1.25.95.51-6.06.24-13.41,1.27-19.32.19-1.09.69-1.78,1.89-1.58Z"/>
    <rect class="st0" x="208.29" y="472.47" width="1.56" height="11.31" transform="translate(-74.96 40.36) rotate(-9.36)"/>
    <polygon class="st0" points="218.97 511.89 217.71 511.89 217.72 509.99 218.97 510.95 218.97 511.89"/>
    <path class="st0" d="M294.28,481.57l.74,1.79c-.41.34-2.79-.78-3.39-.62-.46.12-.34,1.17-.84,1.26-9.85,1.7-14.4,3.19-23.06,7.84-1.43.77-12.76,6.63-13.26,6.09-.96-1.35,5.13-7.36,5.57-7.57,3.58-1.72,11.36-4.31,15.33-5.42,2.42-.67,17.88-4.08,18.91-3.38Z"/>
    <path class="st0" d="M357.11,493.52c-.71.98-2.6,2.58-3.66,2.99-.66.25-9.07,1.08-7.75,2.07l1.9.63c-2.85,1.78-6.11,1.35-9.2,1.62-1.33.12-3.74,1.86-3.47-.33l-3.16,1.25.42-1.89,7.81-1.27-15.83.62,1.9-.94-2.54-.32c.06-.83,2.59-1.48,3.22-1.56,3.39-.48,8.53-.07,12.33-.31,1.66-.11.79-1.04.93-1.92l.63,1.91,16.47-2.54Z"/>
    <path class="st0" d="M289.29,476.43l.1,1.76,1.82.73c-4.02-2.05-23.72,6.79-25.34,5.07-.43-5.73,9.03-4.66,12.85-5.73.53-.15.43-1.11.89-1.22,2.44-.59,6.82.35,9.68-.61Z"/>
    <path class="st0" d="M255.1,515.7c-.85,3.8-3.68,3.42-6.96,4.76-1.93.79-3.23,2.74-5.71,2.2-.55-2.84,2.46-2.59,4.27-3.61,3.18-1.8,2.01-1.65,6.19-2.22.32-.04.52-1.87,2.21-1.13Z"/>
    <path class="st0" d="M231.65,543.57c-4.16.5-6.65,3.7-10.77,4.44l.06-3.1c3-.26,6.02-1.97,8.95-2.2.92-.07,1.42-.45,1.76.87Z"/>
    <path class="st0" d="M283.61,473.22l-7.6,1.27c.69-3.16,4.36-2.42,6.67-3.78l.94,2.52Z"/>
    <path class="st0" d="M315.29,477.03l.33,3.16c-3.29-2.2-8.23.35-11.72,1.28l.37-1.96c1.24-.89,7.34-.43,9.3-1.24.76-.32.03-1.75,1.73-1.24Z"/>
    <path class="st0" d="M291.84,566.4l-1.91.63.65,1.26c-2.04-.31-8.11-.1-9.89.52-.99.34-.87,1.28-1.18,1.29-1.18.04-3.03-.75-4.77.1v-1.9s17.1-1.9,17.1-1.9Z"/>
    <polygon class="st0" points="328.6 475.77 327.32 478.93 325.72 476.99 322.94 477.1 321.63 478.93 322.01 476.39 328.6 475.77"/>
    <path class="st0" d="M302.62,481.47l-1.6-.57-.67,1.2c-1.98-1.19-2.82.48-4.69.63l.42-1.91,6.87-1.24-.33,1.89Z"/>
    <path class="st0" d="M295.64,551.82c.25,1.6-.14,1.14-1.19,1.49-1.36.46-4.12.84-5.14-.55l6.33-.94Z"/>
    <path class="st0" d="M320.99,476.4c-.05.93.41,1.31-.48,1.88-2.14,1.37-4.66,2.8-3.94-1.24l1.25,1.89c-.52-2.36,1.28-2.13,3.17-2.53Z"/>
    <path class="st0" d="M280.44,506.81l-8.24,1.91-.62-1.6c2.85-.25,5.93-.19,8.55-1.57l.31,1.25Z"/>
    <path class="st0" d="M321.62,496.68v1.9s-2.9-.57-2.9-.57l-.89,1.21c-.69-3.12,2.08-1.64,3.79-2.53Z"/>
    <rect class="st0" x="320.36" y="499.22" width="3.16" height=".62"/>
    <polygon class="st0" points="273.47 568.93 273.79 570.82 272.21 570.19 272.21 568.93 273.47 568.93"/>
    <rect class="st0" x="293.12" y="567.04" width="1.26" height=".62"/>
    <path class="st0" d="M292.16,564.49c.41.21.41.42,0,.63v-.63Z"/>
    <path class="st0" d="M322.58,496.68c.41.21.41.42,0,.63v-.63Z"/>
    <path class="st0" d="M412.87,362.32c-1.06,1.78-4.32,2.35-6.32,2.86-5.35,1.37-11.49,2.82-16.35,4.05-4.44,1.12-12.64,3.76-16.59,4.21-1.19.14-1.66.67-2.55-.67.09-1.9,10.44-3.07,12.17-3.54.5-.14.38-1.01,1.4-1.27,9.17-2.31,19.01-3.38,28.23-5.64Z"/>
    <path class="st0" d="M473.7,338.23c-.24,2.82-3.44,2.62-5.21,3.22-5.22,1.77-14.13,4.06-19.33,4.97-2.39.42-4.75.48-7.13.68-.28-1.59.24-1.19,1.4-1.47,4.88-1.19,10.17-1.61,15.2-3.03.48-.14.52-1,1-1.14,1.87-.54,13.45-3.71,14.07-3.23Z"/>
    <path class="st0" d="M427.44,410.48l-.64,1.26,2.23-.62.3,1.25-7.97.06c-.31.07-.53-.05-.77-.22-.35-.25.21-1.75-1.39-1.09v1.26s-1.05-1.29-1.05-1.29c-1.18-.3-5.13,1.56-5.92-.61h15.21Z"/>
    <path class="st0" d="M428.71,384.51c-.08,1.33-2.36-.09-1.91,1.89l-1.57-1.27-.95,1.27-.31-1.89c-2.15,1.05-2.51,3.6-5.4,3.15l1.26-1.25-1.56.02-.98,1.87-1.2-.08-.43-1.23-2.15.71.62,1.24-4.43-.63-.06,1.83-2.09.07c-.75-.73.14-1.3-1.34-1.28-.68.01,1.25,1.89-.95,1.27l.44-1.89c4.84-.13,10.18-3.33,14.76-1.91l.41-1.93c2.75-.42,5.12-1.11,7.83.03Z"/>
    <path class="st0" d="M401.46,421.89c.15.16.28,1.37-.49,1.88-3.17,2.1-5.31,1.81-9.01,1.28.43-1.11,2.69-.82,3.94-1.32.4-.16.48-.96,1-1.15.7-.26,4.34-.92,4.56-.69Z"/>
    <path class="st0" d="M339.36,408.58l-.42,1.91-8.44,2.52c.1-3.19,2.91-2.11,4.61-2.56.24-.06,2.48-2.46,4.25-1.87Z"/>
    <path class="st0" d="M400.2,439.01c.53,1.38-2.43,2.04-3.17,2.21-1.08.26-2.05.49-3.16.32l3.33-2.03,3-.5Z"/>
    <rect class="st0" x="491.45" y="277.39" width="1.26" height=".62"/>
    <path class="st0" d="M226.58,615.2c-.88,1.33-2.85,3.38-2.22.62-2.24.92-5.03.27-5.37-2.52l7.6,1.91Z"/>
  </g>
</svg>